<?xml version="1.0" encoding="UTF-8"?>
<svg id="Capa_2" data-name="Capa 2" xmlns="http://www.w3.org/2000/svg" xmlns:xlink="http://www.w3.org/1999/xlink" viewBox="0 0 1474.68 456.44">
  <defs>
    <style>
      .cls-1 {
        fill: url(#Nueva_muestra_de_degradado_6-9);
      }

      .cls-2 {
        fill: url(#Nueva_muestra_de_degradado_6-3);
      }

      .cls-3, .cls-4 {
        fill: #fff;
      }

      .cls-5 {
        fill: url(#Nueva_muestra_de_degradado_6-13);
      }

      .cls-6 {
        fill: url(#Nueva_muestra_de_degradado_6-12);
      }

      .cls-7 {
        fill: url(#Nueva_muestra_de_degradado_6-21);
      }

      .cls-8 {
        fill: url(#Nueva_muestra_de_degradado_6-4);
      }

      .cls-9 {
        fill: url(#Nueva_muestra_de_degradado_6);
      }

      .cls-10 {
        fill: url(#Nueva_muestra_de_degradado_6-17);
      }

      .cls-11 {
        fill: url(#Nueva_muestra_de_degradado_6-8);
      }

      .cls-12 {
        fill: url(#Nueva_muestra_de_degradado_6-18);
      }

      .cls-13 {
        fill: url(#Nueva_muestra_de_degradado_6-14);
      }

      .cls-14 {
        fill: url(#Nueva_muestra_de_degradado_6-7);
      }

      .cls-15 {
        fill: url(#Nueva_muestra_de_degradado_6-22);
      }

      .cls-16 {
        fill: url(#Nueva_muestra_de_degradado_6-24);
      }

      .cls-17 {
        fill: url(#Nueva_muestra_de_degradado_6-20);
      }

      .cls-18 {
        fill: url(#Nueva_muestra_de_degradado_6-11);
      }

      .cls-19 {
        fill: url(#Nueva_muestra_de_degradado_6-23);
      }

      .cls-20 {
        fill: url(#Nueva_muestra_de_degradado_6-16);
      }

      .cls-21 {
        fill: url(#Nueva_muestra_de_degradado_6-5);
      }

      .cls-4 {
        stroke: #fff;
        stroke-miterlimit: 10;
        stroke-width: 11px;
      }

      .cls-22 {
        fill: url(#Nueva_muestra_de_degradado_6-19);
      }

      .cls-23 {
        fill: url(#Nueva_muestra_de_degradado_6-15);
      }

      .cls-24 {
        fill: url(#Nueva_muestra_de_degradado_6-10);
      }

      .cls-25 {
        fill: url(#Nueva_muestra_de_degradado_1);
      }

      .cls-26 {
        fill: url(#Nueva_muestra_de_degradado_6-6);
      }

      .cls-27 {
        fill: url(#Nueva_muestra_de_degradado_6-2);
      }
    </style>
    <linearGradient id="Nueva_muestra_de_degradado_1" data-name="Nueva muestra de degradado 1" x1="0" y1="228.22" x2="456.44" y2="228.22" gradientUnits="userSpaceOnUse">
      <stop offset="0" stop-color="#3558a4"/>
      <stop offset=".28" stop-color="#3154a1"/>
      <stop offset=".72" stop-color="#539eca"/>
      <stop offset=".85" stop-color="#3686b1"/>
      <stop offset="1" stop-color="#196f99"/>
    </linearGradient>
    <linearGradient id="Nueva_muestra_de_degradado_6" data-name="Nueva muestra de degradado 6" x1="450.51" y1="170.41" x2="1488.29" y2="159.3" gradientUnits="userSpaceOnUse">
      <stop offset=".05" stop-color="#f7ab15"/>
      <stop offset=".18" stop-color="#da9812"/>
      <stop offset=".4" stop-color="#ae7b0d"/>
      <stop offset=".51" stop-color="#9d700c"/>
      <stop offset=".52" stop-color="#9d700c"/>
      <stop offset=".75" stop-color="#ad7b0e"/>
      <stop offset=".94" stop-color="#b37f0f"/>
    </linearGradient>
    <linearGradient id="Nueva_muestra_de_degradado_6-2" data-name="Nueva muestra de degradado 6" x1="450.65" y1="183.41" x2="1488.43" y2="172.3" xlink:href="#Nueva_muestra_de_degradado_6"/>
    <linearGradient id="Nueva_muestra_de_degradado_6-3" data-name="Nueva muestra de degradado 6" x1="450.57" y1="176.08" x2="1488.35" y2="164.97" xlink:href="#Nueva_muestra_de_degradado_6"/>
    <linearGradient id="Nueva_muestra_de_degradado_6-4" data-name="Nueva muestra de degradado 6" x1="450.68" y1="185.56" x2="1488.45" y2="174.45" xlink:href="#Nueva_muestra_de_degradado_6"/>
    <linearGradient id="Nueva_muestra_de_degradado_6-5" data-name="Nueva muestra de degradado 6" x1="450.52" y1="170.56" x2="1488.29" y2="159.45" xlink:href="#Nueva_muestra_de_degradado_6"/>
    <linearGradient id="Nueva_muestra_de_degradado_6-6" data-name="Nueva muestra de degradado 6" x1="449.98" y1="120.28" x2="1487.75" y2="109.17" xlink:href="#Nueva_muestra_de_degradado_6"/>
    <linearGradient id="Nueva_muestra_de_degradado_6-7" data-name="Nueva muestra de degradado 6" x1="450.69" y1="186.81" x2="1488.47" y2="175.7" xlink:href="#Nueva_muestra_de_degradado_6"/>
    <linearGradient id="Nueva_muestra_de_degradado_6-8" data-name="Nueva muestra de degradado 6" x1="450.86" y1="202.55" x2="1488.64" y2="191.44" xlink:href="#Nueva_muestra_de_degradado_6"/>
    <linearGradient id="Nueva_muestra_de_degradado_6-9" data-name="Nueva muestra de degradado 6" x1="450.71" y1="188.76" x2="1488.49" y2="177.65" xlink:href="#Nueva_muestra_de_degradado_6"/>
    <linearGradient id="Nueva_muestra_de_degradado_6-10" data-name="Nueva muestra de degradado 6" x1="450.72" y1="189.48" x2="1488.5" y2="178.37" xlink:href="#Nueva_muestra_de_degradado_6"/>
    <linearGradient id="Nueva_muestra_de_degradado_6-11" data-name="Nueva muestra de degradado 6" x1="450.73" y1="190.96" x2="1488.51" y2="179.85" xlink:href="#Nueva_muestra_de_degradado_6"/>
    <linearGradient id="Nueva_muestra_de_degradado_6-12" data-name="Nueva muestra de degradado 6" x1="450.03" y1="125.1" x2="1487.81" y2="113.99" xlink:href="#Nueva_muestra_de_degradado_6"/>
    <linearGradient id="Nueva_muestra_de_degradado_6-13" data-name="Nueva muestra de degradado 6" x1="450.74" y1="191.63" x2="1488.52" y2="180.52" xlink:href="#Nueva_muestra_de_degradado_6"/>
    <linearGradient id="Nueva_muestra_de_degradado_6-14" data-name="Nueva muestra de degradado 6" x1="450.75" y1="192.32" x2="1488.53" y2="181.21" xlink:href="#Nueva_muestra_de_degradado_6"/>
    <linearGradient id="Nueva_muestra_de_degradado_6-15" data-name="Nueva muestra de degradado 6" x1="451.87" y1="296.95" x2="1489.65" y2="285.84" xlink:href="#Nueva_muestra_de_degradado_6"/>
    <linearGradient id="Nueva_muestra_de_degradado_6-16" data-name="Nueva muestra de degradado 6" x1="452.02" y1="311.02" x2="1489.8" y2="299.9" xlink:href="#Nueva_muestra_de_degradado_6"/>
    <linearGradient id="Nueva_muestra_de_degradado_6-17" data-name="Nueva muestra de degradado 6" x1="451.92" y1="301.57" x2="1489.7" y2="290.46" xlink:href="#Nueva_muestra_de_degradado_6"/>
    <linearGradient id="Nueva_muestra_de_degradado_6-18" data-name="Nueva muestra de degradado 6" x1="452.05" y1="313.49" x2="1489.82" y2="302.38" xlink:href="#Nueva_muestra_de_degradado_6"/>
    <linearGradient id="Nueva_muestra_de_degradado_6-19" data-name="Nueva muestra de degradado 6" x1="452.19" y1="327.39" x2="1489.97" y2="316.28" xlink:href="#Nueva_muestra_de_degradado_6"/>
    <linearGradient id="Nueva_muestra_de_degradado_6-20" data-name="Nueva muestra de degradado 6" x1="452.07" y1="315.4" x2="1489.84" y2="304.29" xlink:href="#Nueva_muestra_de_degradado_6"/>
    <linearGradient id="Nueva_muestra_de_degradado_6-21" data-name="Nueva muestra de degradado 6" x1="452.08" y1="316.35" x2="1489.85" y2="305.23" xlink:href="#Nueva_muestra_de_degradado_6"/>
    <linearGradient id="Nueva_muestra_de_degradado_6-22" data-name="Nueva muestra de degradado 6" x1="451.9" y1="300.28" x2="1489.68" y2="289.17" xlink:href="#Nueva_muestra_de_degradado_6"/>
    <linearGradient id="Nueva_muestra_de_degradado_6-23" data-name="Nueva muestra de degradado 6" x1="452.09" y1="317.62" x2="1489.87" y2="306.51" xlink:href="#Nueva_muestra_de_degradado_6"/>
    <linearGradient id="Nueva_muestra_de_degradado_6-24" data-name="Nueva muestra de degradado 6" x1="452.1" y1="318.48" x2="1489.88" y2="307.36" xlink:href="#Nueva_muestra_de_degradado_6"/>
  </defs>
  <g id="Capa_1-2" data-name="Capa 1">
    <circle class="cls-25" cx="228.22" cy="228.22" r="228.22"/>
    <rect class="cls-3" x="125.58" y="190.15" width="24.01" height="180.55" rx="12.01" ry="12.01"/>
    <rect class="cls-3" x="95.62" y="276.84" width="24.01" height="93.34" rx="12.01" ry="12.01"/>
    <g>
      <path class="cls-4" d="M167.89,66.29h.34c.17,0,.3.14.3.3v13.05c0,.17-.14.3-.3.3h-.34c-.17,0-.3-.14-.3-.3v-13.05c0-.17.14-.3.3-.3Z"/>
      <path class="cls-4" d="M197.55,81.59h13.05c.17,0,.3.14.3.3v.34c0,.17-.14.3-.3.3h-13.05c-.17,0-.3-.14-.3-.3v-.34c0-.17.14-.3.3-.3Z" transform="translate(13.06 191.12) rotate(-51.63)"/>
      <path class="cls-4" d="M111.16,105.37h.34c.17,0,.3.14.3.3v13.05c0,.17-.14.3-.3.3h-.34c-.17,0-.3-.14-.3-.3v-13.05c0-.17.14-.3.3-.3Z" transform="translate(-28.75 185.41) rotate(-72.82)"/>
      <path class="cls-4" d="M216.97,108.08h13.05c.17,0,.3.14.3.3v.34c0,.17-.14.3-.3.3h-13.05c-.17,0-.3-.14-.3-.3v-.34c0-.17.14-.3.3-.3Z" transform="translate(-22.09 70.88) rotate(-17.18)"/>
      <path class="cls-4" d="M130.81,77.71h.34c.17,0,.3.14.3.3v13.05c0,.17-.14.3-.3.3h-.34c-.17,0-.3-.14-.3-.3v-13.05c0-.17.14-.3.3-.3Z" transform="translate(-24.18 99.59) rotate(-38.38)"/>
    </g>
    <path class="cls-3" d="M307.38,316.16l-59.17-89.55,56.79-54.58c2.11-2.03,2.18-5.39.15-7.5l-9.05-9.41c-2.03-2.11-5.38-2.18-7.5-.16l-107.05,102.44v-69.24h.03s8.13,0,11.03-8.83l1.97-7.9s1.74-6.97,4.76-11.38c0,0,7.32-10.92,8.94-19.4,0,0,4.07-14.17-5.46-29.27,0,0-9.06-15.1-29.73-17.65,0,0-8.71-.58-14.52,1.05,0,0-18.12,3.14-25.9,24.04,0,0-6.62,15.56,1.74,30.89l6.85,13.36,3.72,9.64,2.09,7.32s1.97,7.55,10.34,7.67h.12v175.54c0,4.26,3.45,7.71,7.71,7.71h8.58c4.26,0,7.71-3.45,7.71-7.71v-72.54l49.32-47.4,56.77,85.92c.68,1.03,2.06,1.31,3.09.63l16.02-10.58c1.03-.68,1.31-2.06.63-3.09ZM152.9,159.7l-3.25-6.62-4.07-8.01c-7.43-11.85-.35-24.85-.35-24.85,6.27-12.66,18.35-14.29,18.35-14.29,3.37-.93,8.01-.58,8.01-.58,13.36.58,20.91,12.66,20.91,12.66,10.45,15.21.35,29.04.35,29.04l-5.23,9.18c-2.32,3.95-5.11,13.24-5.11,13.24l-1.97,6.74-3.46-.11v-27.02h5.8c.65,0,1.18-.53,1.18-1.18v-2.89c0-.65-.53-1.18-1.18-1.18h-5.8s-6.36-.01-6.36-.01v32.09l-2.08-.06v-26.75h.05v-5.25h-.05v-.03h-6.36v.03h-5.75c-.65,0-1.18.53-1.18,1.18v2.89c0,.65.53,1.18,1.18,1.18h5.75v26.55l-4.16-.13c-.81-5.11-5.23-15.8-5.23-15.8Z"/>
    <ellipse class="cls-3" cx="323.65" cy="341.34" rx="15.33" ry="15.83"/>
    <path class="cls-3" d="M324.26,300.79c-22.62,0-40.96,18.34-40.96,40.96s18.34,40.96,40.96,40.96,40.96-18.34,40.96-40.96-18.34-40.96-40.96-40.96ZM323.95,365.8c-13.42,0-24.3-10.88-24.3-24.3s10.88-24.3,24.3-24.3,24.3,10.88,24.3,24.3-10.88,24.3-24.3,24.3Z"/>
    <path class="cls-3" d="M349.25,265.79s-9.86-14.79-30.14-11.69c0,0-6.53.34-13.64,6.42,0,0-16.05,11.69-8.94,32.44,0,0,7.22,17.88,18,33.12l5.5,8.02s2.98,5.39,4.7,5.16c0,0,0,2.18,5.16-5.85l7.91-11.81s9.17-13.41,13.64-24.99c0,0,9.28-13.64-2.18-30.83ZM324.84,294.56c-6.01,0-10.89-4.9-10.89-10.95s4.88-10.95,10.89-10.95,10.89,4.9,10.89,10.95-4.88,10.95-10.89,10.95Z"/>
    <path class="cls-3" d="M234.7,204.73c-11.86,0-21.48,9.62-21.48,21.48s9.62,21.48,21.48,21.48,21.48-9.62,21.48-21.48-9.62-21.48-21.48-21.48ZM233.9,235.79c-5.14,0-9.3-4.17-9.3-9.3s4.17-9.3,9.3-9.3,9.3,4.17,9.3,9.3-4.17,9.3-9.3,9.3Z"/>
    <g>
      <g>
        <rect class="cls-9" x="539.93" y="115.29" width="25.01" height="108.06"/>
        <path class="cls-27" d="M639.34,139.06c-5.66,0-10.86.95-15.59,2.86-4.74,1.9-8.7,4.61-11.89,8.1v-9.73h-23v83.06h24.08v-41.06c0-7.41,1.8-12.99,5.4-16.75,3.6-3.76,8.44-5.64,14.51-5.64,5.45,0,9.62,1.62,12.5,4.86,2.88,3.24,4.32,8.16,4.32,14.74v43.84h24.08v-47.55c0-12.14-3.16-21.3-9.49-27.48-6.33-6.18-14.64-9.26-24.93-9.26Z"/>
        <path class="cls-2" d="M732.9,205.45c-3.3,0-5.84-.95-7.64-2.86-1.8-1.9-2.7-4.6-2.7-8.1v-33.81h20.69v-18.53h-20.69v-20.22h-24.08v20.22h-12.81v18.53h12.81v34.12c0,9.78,2.7,17.19,8.11,22.23,5.4,5.04,13.04,7.56,22.92,7.56,3.81,0,7.43-.44,10.88-1.31,3.45-.87,6.35-2.18,8.72-3.94l-6.48-16.98c-2.68,2.06-5.92,3.09-9.73,3.09Z"/>
        <path class="cls-8" d="M820.28,144.31c-6.59-3.5-13.95-5.25-22.08-5.25s-15.88,1.83-22.62,5.48c-6.74,3.65-12.04,8.75-15.9,15.28-3.86,6.54-5.79,13.87-5.79,22s1.95,15.59,5.87,22.08c3.91,6.48,9.47,11.55,16.67,15.21,7.2,3.65,15.49,5.48,24.86,5.48,15.03,0,26.45-4.48,34.27-13.43l-12.81-13.89c-2.88,2.78-6,4.81-9.34,6.1-3.34,1.29-7.18,1.93-11.5,1.93-6.28,0-11.53-1.49-15.75-4.48-4.22-2.98-6.9-7.05-8.03-12.2h62.83c.31-4.01.46-6.17.46-6.48,0-8.65-1.88-16.23-5.63-22.77-3.76-6.53-8.93-11.55-15.51-15.05ZM777.82,174.57c.82-5.35,3.09-9.57,6.79-12.66,3.7-3.09,8.28-4.63,13.74-4.63s9.88,1.57,13.59,4.71c3.7,3.14,5.97,7.33,6.79,12.58h-40.91Z"/>
        <rect class="cls-21" x="857.48" y="108.8" width="24.08" height="114.55"/>
        <path class="cls-26" d="M926.79,105.56c-2.78-2.47-6.38-3.7-10.81-3.7s-8.03,1.29-10.81,3.86c-2.78,2.57-4.17,5.77-4.17,9.57s1.39,7,4.17,9.57c2.78,2.57,6.38,3.86,10.81,3.86s8.03-1.31,10.81-3.94c2.78-2.62,4.17-5.94,4.17-9.96,0-3.7-1.39-6.79-4.17-9.26Z"/>
        <rect class="cls-14" x="903.95" y="140.3" width="24.08" height="83.06"/>
        <path class="cls-11" d="M1013.25,150.95c-6.28-7.92-15.44-11.89-27.48-11.89-7.62,0-14.59,1.67-20.92,5.02-6.33,3.34-11.35,8.05-15.05,14.13-3.7,6.07-5.56,13.07-5.56,20.99s1.85,14.92,5.56,21c3.7,6.07,8.72,10.78,15.05,14.13,6.33,3.35,13.3,5.02,20.92,5.02,11.22,0,19.97-3.45,26.24-10.34v3.55c0,7.62-1.98,13.3-5.94,17.06-3.96,3.76-10.11,5.64-18.45,5.64-5.35,0-10.71-.85-16.06-2.55-5.35-1.7-9.78-3.99-13.28-6.87l-9.57,17.29c4.73,3.7,10.7,6.53,17.91,8.49,7.2,1.95,14.82,2.93,22.85,2.93,15.23,0,26.81-3.71,34.74-11.12,7.92-7.41,11.89-18.73,11.89-33.96v-69.16h-22.85v10.65ZM1006.22,193.94c-4.07,3.76-9.29,5.64-15.67,5.64s-11.63-1.88-15.75-5.64c-4.12-3.76-6.18-8.67-6.18-14.74s2.06-10.99,6.18-14.74c4.12-3.76,9.36-5.63,15.75-5.63s11.6,1.88,15.67,5.63c4.06,3.76,6.1,8.67,6.1,14.74s-2.03,10.99-6.1,14.74Z"/>
        <path class="cls-1" d="M1118.69,144.31c-6.59-3.5-13.95-5.25-22.08-5.25s-15.88,1.83-22.62,5.48c-6.74,3.65-12.04,8.75-15.9,15.28-3.86,6.54-5.79,13.87-5.79,22s1.95,15.59,5.87,22.08c3.91,6.48,9.47,11.55,16.67,15.21,7.2,3.65,15.49,5.48,24.85,5.48,15.03,0,26.45-4.48,34.27-13.43l-12.81-13.89c-2.88,2.78-6,4.81-9.34,6.1-3.34,1.29-7.18,1.93-11.5,1.93-6.28,0-11.53-1.49-15.75-4.48-4.22-2.98-6.9-7.05-8.03-12.2h62.83c.31-4.01.46-6.17.46-6.48,0-8.65-1.88-16.23-5.63-22.77-3.76-6.53-8.93-11.55-15.51-15.05ZM1076.23,174.57c.82-5.35,3.09-9.57,6.79-12.66,3.7-3.09,8.28-4.63,13.74-4.63s9.88,1.57,13.59,4.71c3.7,3.14,5.97,7.33,6.79,12.58h-40.91Z"/>
        <path class="cls-24" d="M1206.37,139.06c-5.66,0-10.86.95-15.59,2.86-4.74,1.9-8.7,4.61-11.89,8.1v-9.73h-23v83.06h24.08v-41.06c0-7.41,1.8-12.99,5.4-16.75,3.6-3.76,8.44-5.64,14.51-5.64,5.45,0,9.62,1.62,12.5,4.86,2.88,3.24,4.32,8.16,4.32,14.74v43.84h24.08v-47.55c0-12.14-3.16-21.3-9.49-27.48-6.33-6.18-14.64-9.26-24.93-9.26Z"/>
        <path class="cls-18" d="M1303.47,158.82c8.13,0,14.36,3.81,18.68,11.42l18.68-10.03c-2.99-6.79-7.74-12.02-14.28-15.67-6.54-3.65-14.18-5.48-22.93-5.48s-16.8,1.83-23.85,5.48c-7.05,3.65-12.56,8.72-16.52,15.21-3.96,6.48-5.94,13.84-5.94,22.08s1.98,15.59,5.94,22.08c3.96,6.48,9.47,11.55,16.52,15.21,7.05,3.65,15,5.48,23.85,5.48s16.39-1.85,22.93-5.56c6.53-3.7,11.29-8.85,14.28-15.44l-18.68-10.19c-4.22,7.62-10.45,11.42-18.68,11.42-6.28,0-11.48-2.06-15.59-6.18-4.12-4.11-6.18-9.73-6.18-16.83s2.06-12.71,6.18-16.83c4.12-4.11,9.31-6.17,15.59-6.17Z"/>
        <path class="cls-6" d="M1377.57,105.56c-2.78-2.47-6.38-3.7-10.81-3.7s-8.03,1.29-10.81,3.86c-2.78,2.57-4.17,5.77-4.17,9.57s1.39,7,4.17,9.57c2.78,2.57,6.38,3.86,10.81,3.86s8.03-1.31,10.81-3.94c2.78-2.62,4.17-5.94,4.17-9.96,0-3.7-1.39-6.79-4.17-9.26Z"/>
        <rect class="cls-5" x="1354.73" y="140.3" width="24.08" height="83.06"/>
        <path class="cls-13" d="M1464.33,148.25c-6.9-6.12-16.78-9.19-29.64-9.19-6.69,0-13.2.88-19.53,2.62-6.33,1.75-11.76,4.22-16.29,7.41l8.64,16.83c2.98-2.37,6.61-4.25,10.88-5.64,4.27-1.39,8.62-2.08,13.05-2.08,6.38,0,11.17,1.42,14.36,4.24,3.19,2.83,4.79,6.87,4.79,12.12h-19.14c-12.15,0-21.13,2.21-26.94,6.64-5.82,4.43-8.72,10.5-8.72,18.22,0,4.84,1.24,9.16,3.7,12.97,2.47,3.81,6.04,6.79,10.73,8.95,4.68,2.16,10.21,3.24,16.6,3.24,12.35,0,20.79-3.86,25.32-11.58v10.34h22.54v-47.39c0-12.35-3.45-21.59-10.34-27.71ZM1450.59,197.11c-1.34,3.7-3.6,6.51-6.79,8.41-3.19,1.9-6.85,2.86-10.96,2.86s-7.54-.9-9.96-2.7c-2.42-1.8-3.63-4.25-3.63-7.33,0-6.48,4.94-9.73,14.82-9.73h16.52v8.49Z"/>
      </g>
      <path class="cls-23" d="M652.93,244.81v99.57h-19.99v-8.32c-5.19,6.26-12.7,9.39-22.54,9.39-6.8,0-12.95-1.52-18.45-4.56-5.5-3.04-9.82-7.38-12.95-13.02-3.13-5.64-4.7-12.17-4.7-19.59s1.56-13.96,4.7-19.59c3.13-5.64,7.45-9.97,12.95-13.02,5.5-3.04,11.65-4.56,18.45-4.56,9.21,0,16.42,2.91,21.61,8.72v-35.02h20.93ZM627.17,322.85c3.49-3.62,5.23-8.48,5.23-14.56s-1.74-10.94-5.23-14.56c-3.49-3.62-7.87-5.43-13.15-5.43s-9.8,1.81-13.28,5.43c-3.49,3.62-5.23,8.48-5.23,14.56s1.74,10.94,5.23,14.56c3.49,3.62,7.92,5.43,13.28,5.43s9.66-1.81,13.15-5.43Z"/>
      <path class="cls-20" d="M742.57,314.19h-54.62c.98,4.47,3.31,8.01,6.98,10.6,3.67,2.6,8.23,3.89,13.69,3.89,3.76,0,7.09-.56,10-1.68,2.91-1.12,5.61-2.89,8.12-5.3l11.14,12.08c-6.8,7.78-16.73,11.68-29.79,11.68-8.14,0-15.34-1.59-21.61-4.76-6.26-3.17-11.09-7.58-14.49-13.22-3.4-5.64-5.1-12.03-5.1-19.19s1.68-13.44,5.03-19.12c3.35-5.68,7.96-10.11,13.82-13.28,5.86-3.18,12.41-4.76,19.66-4.76s13.46,1.52,19.19,4.56c5.73,3.04,10.22,7.4,13.49,13.08,3.26,5.68,4.9,12.28,4.9,19.79,0,.27-.13,2.15-.4,5.64ZM693.59,290.98c-3.22,2.68-5.19,6.35-5.9,11h35.56c-.72-4.56-2.68-8.21-5.9-10.94-3.22-2.73-7.16-4.09-11.81-4.09s-8.72,1.34-11.94,4.03Z"/>
      <path class="cls-10" d="M882.54,250.45v93.94h-17.85l-46.83-57.03v57.03h-21.47v-93.94h17.98l46.7,57.03v-57.03h21.47Z"/>
      <path class="cls-12" d="M973.65,314.19h-54.62c.98,4.47,3.31,8.01,6.98,10.6,3.67,2.6,8.23,3.89,13.69,3.89,3.76,0,7.09-.56,10-1.68,2.91-1.12,5.61-2.89,8.12-5.3l11.14,12.08c-6.8,7.78-16.73,11.68-29.79,11.68-8.14,0-15.34-1.59-21.61-4.76-6.26-3.17-11.09-7.58-14.49-13.22-3.4-5.64-5.1-12.03-5.1-19.19s1.68-13.44,5.03-19.12c3.35-5.68,7.96-10.11,13.82-13.28,5.86-3.18,12.41-4.76,19.66-4.76s13.46,1.52,19.19,4.56c5.73,3.04,10.22,7.4,13.49,13.08,3.26,5.68,4.9,12.28,4.9,19.79,0,.27-.13,2.15-.4,5.64ZM924.67,290.98c-3.22,2.68-5.19,6.35-5.9,11h35.56c-.72-4.56-2.68-8.21-5.9-10.94-3.22-2.73-7.16-4.09-11.81-4.09s-8.72,1.34-11.94,4.03Z"/>
      <path class="cls-22" d="M1062.49,272.19v60.12c0,13.24-3.45,23.08-10.33,29.52-6.89,6.44-16.96,9.66-30.19,9.66-6.98,0-13.6-.85-19.86-2.55-6.26-1.7-11.45-4.16-15.57-7.38l8.32-15.03c3.04,2.5,6.89,4.5,11.54,5.97,4.65,1.48,9.3,2.21,13.96,2.21,7.25,0,12.59-1.63,16.04-4.9,3.44-3.27,5.17-8.21,5.17-14.83v-3.09c-5.46,5.99-13.06,8.99-22.81,8.99-6.62,0-12.68-1.45-18.18-4.36-5.5-2.91-9.86-7-13.08-12.28-3.22-5.28-4.83-11.36-4.83-18.25s1.61-12.97,4.83-18.25c3.22-5.28,7.58-9.37,13.08-12.28,5.5-2.91,11.56-4.36,18.18-4.36,10.47,0,18.43,3.45,23.89,10.33v-9.26h19.86ZM1036.52,318.82c3.53-3.26,5.3-7.54,5.3-12.82s-1.77-9.55-5.3-12.82c-3.54-3.26-8.07-4.9-13.62-4.9s-10.11,1.63-13.69,4.9c-3.58,3.27-5.37,7.54-5.37,12.82s1.79,9.55,5.37,12.82c3.58,3.27,8.14,4.9,13.69,4.9s10.08-1.63,13.62-4.9Z"/>
      <path class="cls-17" d="M1095.84,340.7c-6.04-3.17-10.76-7.58-14.16-13.22-3.4-5.64-5.1-12.03-5.1-19.19s1.7-13.55,5.1-19.19c3.4-5.64,8.12-10.04,14.16-13.22,6.04-3.18,12.86-4.76,20.46-4.76s14.4,1.59,20.4,4.76c5.99,3.18,10.69,7.58,14.09,13.22,3.4,5.64,5.1,12.03,5.1,19.19s-1.7,13.55-5.1,19.19c-3.4,5.64-8.1,10.04-14.09,13.22-6,3.18-12.79,4.76-20.4,4.76s-14.43-1.59-20.46-4.76ZM1129.52,322.85c3.44-3.62,5.17-8.48,5.17-14.56s-1.72-10.94-5.17-14.56c-3.44-3.62-7.85-5.43-13.22-5.43s-9.8,1.81-13.29,5.43c-3.49,3.62-5.23,8.48-5.23,14.56s1.74,10.94,5.23,14.56c3.49,3.62,7.92,5.43,13.29,5.43s9.77-1.81,13.22-5.43Z"/>
      <path class="cls-7" d="M1184,340.7c-6.13-3.17-10.92-7.58-14.36-13.22-3.44-5.64-5.17-12.03-5.17-19.19s1.72-13.55,5.17-19.19c3.44-5.64,8.23-10.04,14.36-13.22,6.13-3.18,13.04-4.76,20.73-4.76s14.25,1.59,19.93,4.76c5.68,3.18,9.82,7.72,12.41,13.62l-16.24,8.72c-3.76-6.62-9.17-9.93-16.24-9.93-5.46,0-9.98,1.79-13.55,5.37-3.58,3.58-5.37,8.45-5.37,14.63s1.79,11.05,5.37,14.63c3.58,3.58,8.1,5.37,13.55,5.37,7.16,0,12.57-3.31,16.24-9.93l16.24,8.86c-2.6,5.73-6.73,10.2-12.41,13.42-5.68,3.22-12.33,4.83-19.93,4.83s-14.61-1.59-20.73-4.76Z"/>
      <path class="cls-15" d="M1250.22,258.77c-2.42-2.24-3.62-5.01-3.62-8.32s1.21-6.08,3.62-8.32c2.41-2.24,5.55-3.35,9.39-3.35s6.98,1.07,9.39,3.22c2.41,2.15,3.62,4.83,3.62,8.05,0,3.49-1.21,6.37-3.62,8.66-2.42,2.28-5.55,3.42-9.39,3.42s-6.98-1.12-9.39-3.35ZM1249.15,272.19h20.93v72.2h-20.93v-72.2Z"/>
      <path class="cls-19" d="M1303.43,340.7c-6.04-3.17-10.76-7.58-14.16-13.22-3.4-5.64-5.1-12.03-5.1-19.19s1.7-13.55,5.1-19.19c3.4-5.64,8.12-10.04,14.16-13.22,6.04-3.18,12.86-4.76,20.47-4.76s14.4,1.59,20.4,4.76c5.99,3.18,10.69,7.58,14.09,13.22,3.4,5.64,5.1,12.03,5.1,19.19s-1.7,13.55-5.1,19.19c-3.4,5.64-8.1,10.04-14.09,13.22-5.99,3.18-12.79,4.76-20.4,4.76s-14.43-1.59-20.47-4.76ZM1337.12,322.85c3.44-3.62,5.17-8.48,5.17-14.56s-1.72-10.94-5.17-14.56c-3.45-3.62-7.85-5.43-13.22-5.43s-9.8,1.81-13.29,5.43c-3.49,3.62-5.23,8.48-5.23,14.56s1.74,10.94,5.23,14.56c3.49,3.62,7.92,5.43,13.29,5.43s9.77-1.81,13.22-5.43Z"/>
      <path class="cls-16" d="M1384.15,343.25c-5.73-1.48-10.29-3.33-13.69-5.57l6.98-15.03c3.22,2.06,7.11,3.74,11.68,5.03,4.56,1.3,9.04,1.95,13.42,1.95,8.86,0,13.29-2.19,13.29-6.58,0-2.06-1.21-3.53-3.62-4.43-2.41-.89-6.13-1.65-11.14-2.28-5.9-.89-10.78-1.92-14.63-3.09-3.85-1.16-7.18-3.22-10-6.17-2.82-2.95-4.23-7.16-4.23-12.61,0-4.56,1.32-8.61,3.96-12.14,2.64-3.53,6.49-6.28,11.54-8.25,5.05-1.97,11.03-2.95,17.92-2.95,5.1,0,10.18.56,15.23,1.68,5.05,1.12,9.24,2.66,12.55,4.63l-6.98,14.9c-6.35-3.58-13.28-5.37-20.8-5.37-4.47,0-7.83.63-10.06,1.88-2.24,1.25-3.36,2.86-3.36,4.83,0,2.24,1.21,3.8,3.62,4.7,2.42.9,6.26,1.74,11.54,2.55,5.9.99,10.74,2.04,14.49,3.15,3.76,1.12,7.02,3.15,9.8,6.11,2.77,2.95,4.16,7.07,4.16,12.35,0,4.47-1.34,8.45-4.03,11.94-2.68,3.49-6.6,6.2-11.74,8.12-5.15,1.92-11.25,2.89-18.32,2.89-5.99,0-11.85-.74-17.58-2.21Z"/>
    </g>
    <g>
      <g>
        <path class="cls-3" d="M294.58,143.59l-26.61.06c0-23.78,20.61-43.56,43.44-44.33l-.11,26.33c-7.67,1.17-15.89,7.11-16.72,17.94Z"/>
        <path class="cls-3" d="M294.86,148.2c2.83,9.61,8.94,14.33,16.39,15.22l.06,27.11c-24.14-1.48-41.61-20.17-43.11-42.44-.01-.17,0,.17,0,0l26.67.11Z"/>
      </g>
      <path class="cls-3" d="M349.03,116.15c-8.11-10.11-20.41-15.94-33.17-16.72l-.06,26.33c8.06,1.28,9.31,3.89,12.17,6.5l21.06-16.11Z"/>
      <g>
        <path class="cls-3" d="M329.03,155.69l21.39,16.63c5.85-7.98,9.19-17.89,8.89-28.56-.28-9.89-3.28-18.17-7.72-23.89l-21,16.06c.89,1.67,1.83,3.79,1.94,7.78.13,4.52-.99,8.62-3.5,11.99Z"/>
        <path class="cls-3" d="M326.2,158.76c-2.67,2.39-5.44,4-10.33,4.72l.06,27c13.72-.44,24.06-6.97,31.56-14.94l-21.28-16.78Z"/>
      </g>
    </g>
  </g>
</svg>